:SAMPLES-PER-SECOND 30
:FULLY-SPECIFIED
:DEGREES
636
root  -20.3501 34.5506 32.5596 -174.091 -47.035 -178.005
RightUpLeg  -9.43599 -28.2967 -2.26913
RightLeg  4.78563 -1.99768 -0.0373075
RightFoot  13.0636 0.0914889 -0.30521
RightToes  -27.4345 -0.128114 -0.235396
Spine  -2.43575 0.395864 -1.23949
Spine1  -4.93688 0.82874 -1.85345
HEad  -41.2521 19.6733 3.90626
LeftShoulder1  -1.94126e-019 -3.10601e-018 -2.51263e-017
LeftArm  -15.4082 17.8476 -70.372
LeftForeArm  28.8627 -33.4463 -5.74057
LeftHand  -0.509197 -1.0756 9.28625
RightShoulder  -4.96962e-017 0 -2.36833e-017
RightArm  -23.371 -22.5237 77.0368
RightForeArm  55.7051 14.9649 1.13745
RightHand  -0.358155 -0.0181468 -7.73632
LeftUpLeg  -2.85269 8.33602 2.50863
LeftLeg  7.81488 19.1955 1.35998
LeftFoot  1.72936 -0.00863535 0.733736
LeftToes  -23.4261 2.32378e-006 -5.43956e-008
637
root  -20.2073 34.568 32.4808 -173.312 -46.9172 -178.194
RightUpLeg  -9.84501 -28.665 -1.72655
RightLeg  3.89956 -1.55108 -0.00488882
RightFoot  13.1814 0.0835975 -0.207201
RightToes  -27.3387 -0.127553 -0.234789
Spine  -2.58176 0.30073 -0.929897
Spine1  -5.20488 0.670136 -1.22731
HEad  -41.329 22.3392 3.17729
LeftShoulder1  -1.94126e-019 -3.10601e-018 -2.51263e-017
LeftArm  -12.8025 17.0701 -71.0197
LeftForeArm  32.1368 -37.6673 -6.6703
LeftHand  -0.578732 -1.48053 9.94382
RightShoulder  -4.96962e-017 0 -2.36833e-017
RightArm  -23.0501 -22.1652 76.6518
RightForeArm  54.7338 15.4348 1.10797
RightHand  -0.347954 -0.206749 -7.8158
LeftUpLeg  -2.71369 8.59555 2.61418
LeftLeg  6.20581 18.4847 0.799867
LeftFoot  2.312 -0.0150813 0.908958
LeftToes  -22.5939 2.32378e-006 -5.43956e-008
638
root  -20.1038 34.5835 32.3964 -172.916 -46.8249 -178.446
RightUpLeg  -9.79589 -28.9742 -1.52889
RightLeg  3.20802 -1.16396 0.0104772
RightFoot  13.2491 0.0768161 -0.119894
RightToes  -27.1656 -0.127041 -0.234235
Spine  -2.60105 0.275225 -0.775598
Spine1  -5.22885 0.651872 -0.932483
HEad  -41.6079 24.0014 3.04739
LeftShoulder1  -1.94126e-019 -3.10601e-018 -2.51263e-017
LeftArm  -10.1778 16.2103 -71.5827
LeftForeArm  32.9219 -41.2398 -7.67604
LeftHand  -0.592946 -1.41749 10.273
RightShoulder  -4.96962e-017 0 -2.36833e-017
RightArm  -22.6194 -22.2753 76.6677
RightForeArm  53.2937 16.2398 1.10258
RightHand  -0.343592 -0.333342 -7.89822
LeftUpLeg  -2.5338 9.72248 2.62153
LeftLeg  5.10463 17.973 0.438429
LeftFoot  3.37714 -0.0339161 1.23305
LeftToes  -24.6872 2.32378e-006 -5.43956e-008
639
root  -20.0009 34.5916 32.3551 -172.566 -47.0541 -178.632
RightUpLeg  -9.83176 -29.4665 -1.32385
RightLeg  2.68176 -0.892878 0.0163151
RightFoot  13.2983 0.0717214 -0.0580795
RightToes  -27.1265 -0.126584 -0.233739
Spine  -2.55385 0.240543 -0.605502
Spine1  -5.11677 0.607439 -0.594514
HEad  -42.2275 24.6575 2.92936
LeftShoulder1  -1.94126e-019 -3.10601e-018 -2.51263e-017
LeftArm  -7.9547 15.3977 -72.4361
LeftForeArm  32.7186 -44.1511 -8.6406
LeftHand  -0.555708 -1.80216 9.15174
RightShoulder  -4.96962e-017 0 -2.36833e-017
RightArm  -22.1469 -22.2534 76.4987
RightForeArm  52.3033 16.8131 1.15291
RightHand  -0.350672 -0.363917 -8.10733
LeftUpLeg  -2.76263 9.4293 2.60429
LeftLeg  4.87731 18.0679 0.370168
LeftFoot  3.68472 -0.0399117 1.34276
LeftToes  -24.8419 2.32378e-006 -5.43956e-008
640
root  -19.8964 34.5935 32.3247 -172.372 -47.3234 -178.797
RightUpLeg  -9.87168 -29.5136 -1.21565
RightLeg  2.50283 -1.12624 0.023894
RightFoot  13.2361 0.0745002 -0.107778
RightToes  -27.075 -0.126185 -0.233305
Spine  -2.45658 0.195044 -0.459747
Spine1  -4.91324 0.536103 -0.30819
HEad  -42.639 24.767 3.00012
LeftShoulder1  -1.94126e-019 -3.10601e-018 -2.51263e-017
LeftArm  -6.1094 15.0119 -73.4287
LeftForeArm  32.3706 -46.4869 -9.50265
LeftHand  -0.527202 -2.25685 8.20746
RightShoulder  -4.96962e-017 0 -2.36833e-017
RightArm  -21.7799 -22.0445 76.393
RightForeArm  52.2217 17.0453 1.17852
RightHand  -0.354257 -0.302234 -8.09726
LeftUpLeg  -3.30213 9.13746 2.62148
LeftLeg  5.54864 18.1029 0.579507
LeftFoot  3.64639 -0.0390885 1.33471
LeftToes  -24.9413 2.32378e-006 -5.43956e-008
641
root  -19.8175 34.5911 32.295 -172.294 -47.5935 -178.828
RightUpLeg  -10.0511 -29.5906 -1.06918
RightLeg  2.70727 -1.32278 0.0232779
RightFoot  13.0272 0.0765459 -0.145635
RightToes  -26.921 -0.125848 -0.232937
Spine  -2.35759 0.10164 -0.270193
Spine1  -4.71106 0.365715 0.0658184
HEad  -42.6709 24.8103 3.23421
LeftShoulder1  -1.94126e-019 -3.10601e-018 -2.51263e-017
LeftArm  -5.28709 15.3668 -74.6502
LeftForeArm  32.4837 -48.3936 -10.2375
LeftHand  -0.497497 -2.91734 7.18423
RightShoulder  -4.96962e-017 0 -2.36833e-017
RightArm  -21.5602 -21.5757 76.2407
RightForeArm  52.5035 16.8062 1.14533
RightHand  -0.356391 -0.23493 -7.99623
LeftUpLeg  -3.9981 8.93665 2.71041
LeftLeg  6.64368 18.0567 0.9179
LeftFoot  3.40419 -0.0341273 1.25364
LeftToes  -24.8736 2.32378e-006 -5.43956e-008
642
root  -19.7549 34.5818 32.2737 -172.202 -47.5776 -178.858
RightUpLeg  -10.3889 -29.4165 -0.9439
RightLeg  3.12743 -1.47639 0.0151574
RightFoot  12.7479 0.0778566 -0.171267
RightToes  -26.799 -0.125578 -0.232641
Spine  -2.28417 0.0605781 -0.09625
Spine1  -4.56648 0.294653 0.405191
HEad  -42.2266 24.8139 3.75162
LeftShoulder1  -1.94126e-019 -3.10601e-018 -2.51263e-017
LeftArm  -5.23189 16.3154 -75.9758
LeftForeArm  32.931 -49.5775 -10.6947
LeftHand  -0.478374 -3.46274 6.52596
RightShoulder  -4.96962e-017 0 -2.36833e-017
RightArm  -21.8142 -21.0615 76.2162
RightForeArm  52.8831 16.2778 1.11477
RightHand  -0.350212 -0.397457 -8.14771
LeftUpLeg  -4.6598 9.20843 2.76641
LeftLeg  7.75456 17.8153 1.24691
LeftFoot  3.06898 -0.0267877 1.12999
LeftToes  -24.7441 2.32378e-006 -5.43956e-008
643
root  -19.7187 34.5654 32.2537 -172.169 -47.4244 -178.83
RightUpLeg  -10.6691 -29.329 -0.806953
RightLeg  3.45971 -1.43508 0.00648663
RightFoot  12.5162 0.0764712 -0.156286
RightToes  -26.7515 -0.125379 -0.232421
Spine  -2.25004 0.0763 0.0673488
Spine1  -4.50507 0.329448 0.723564
HEad  -41.4404 24.6452 4.33196
LeftShoulder1  -1.94126e-019 -3.10601e-018 -2.51263e-017
LeftArm  -4.96025 17.5161 -77.118
LeftForeArm  33.9621 -49.7675 -10.6944
LeftHand  -0.491294 -3.78757 6.47849
RightShoulder  -4.96962e-017 0 -2.36833e-017
RightArm  -22.311 -20.828 76.2203
RightForeArm  53.2545 15.8053 1.11779
RightHand  -0.344465 -0.547186 -8.24588
LeftUpLeg  -5.08404 9.32635 2.83456
LeftLeg  8.55708 17.8148 1.49366
LeftFoot  2.7307 -0.0204422 1.01924
LeftToes  -24.6858 2.32378e-006 -5.43956e-008
644
root  -19.7107 34.5463 32.2396 -172.083 -47.1437 -178.838
RightUpLeg  -10.8798 -29.2746 -0.72295
RightLeg  3.60236 -1.22857 0.00262754
RightFoot  12.3739 0.0730679 -0.110026
RightToes  -26.7711 -0.125254 -0.232282
Spine  -2.27502 0.117932 0.219542
Spine1  -4.5638 0.406455 1.02842
HEad  -40.4366 24.3989 4.88387
LeftShoulder1  -1.94126e-019 -3.10601e-018 -2.51263e-017
LeftArm  -4.88762 18.8315 -78.0381
LeftForeArm  35.8747 -48.6685 -10.0899
LeftHand  -0.520964 -4.49602 6.4034
RightShoulder  -4.96962e-017 0 -2.36833e-017
RightArm  -22.613 -20.9257 76.2239
RightForeArm  53.4783 15.6268 1.12289
RightHand  -0.333236 -0.613035 -8.07861
LeftUpLeg  -5.40739 9.47733 2.82918
LeftLeg  9.2037 17.9086 1.70151
LeftFoot  2.42105 -0.0160691 0.922026
LeftToes  -24.8691 2.32378e-006 -5.43956e-008
645
root  -19.6973 34.5262 32.2422 -171.902 -47.0894 -178.67
RightUpLeg  -11.2423 -29.1471 -0.423443
RightLeg  3.58235 -1.29977 0.00318479
RightFoot  12.3585 0.0741771 -0.125459
RightToes  -26.8125 -0.125209 -0.232229
Spine  -2.42411 0.0673333 0.393639
Spine1  -4.87133 0.298897 1.38819
HEad  -39.9393 24.6973 5.0336
LeftShoulder1  -1.94126e-019 -3.10601e-018 -2.51263e-017
LeftArm  -5.50473 20.3571 -78.6269
LeftForeArm  33.2892 -46.6435 -9.48128
LeftHand  -0.477489 -4.79357 5.73855
RightShoulder  -4.96962e-017 0 -2.36833e-017
RightArm  -21.7555 -21.5329 76.1635
RightForeArm  53.5417 16.1585 1.09657
RightHand  -0.31739 -0.343219 -7.30746
LeftUpLeg  -6.09288 9.31462 2.89512
LeftLeg  10.0077 18.0951 1.97069
LeftFoot  2.0541 -0.0107407 0.809409
LeftToes  -24.9928 2.32378e-006 -5.43956e-008
646
root  -19.7396 34.5179 32.2162 -171.713 -46.8187 -178.77
RightUpLeg  -11.2292 -28.913 -0.482753
RightLeg  3.39091 -1.28183 0.00740362
RightFoot  12.3867 0.0743054 -0.123716
RightToes  -26.8894 -0.125247 -0.232265
Spine  -2.49378 0.0897188 0.439093
Spine1  -5.02132 0.326711 1.49108
HEad  -40.0167 25.2001 4.75357
LeftShoulder1  -1.94126e-019 -3.10601e-018 -2.51263e-017
LeftArm  -7.60534 21.9554 -78.8303
LeftForeArm  27.3751 -44.1421 -8.98238
LeftHand  -0.347728 -4.92938 4.21265
RightShoulder  -4.96962e-017 0 -2.36833e-017
RightArm  -20.336 -22.2851 76.1997
RightForeArm  53.9503 16.9396 1.10552
RightHand  -0.318909 0.260626 -6.61408
LeftUpLeg  -6.24617 9.5116 2.78857
LeftLeg  10.3557 18.1447 2.0855
LeftFoot  1.87402 -0.00886399 0.751007
LeftToes  -24.8246 2.32378e-006 -5.43956e-008
647
root  -19.7754 34.5136 32.187 -171.709 -46.813 -178.74
RightUpLeg  -11.0179 -28.688 -0.51622
RightLeg  3.10888 -1.5081 0.0159528
RightFoot  12.4628 0.0783548 -0.174498
RightToes  -26.9082 -0.125371 -0.232396
Spine  -2.5354 0.0688566 0.473579
Spine1  -5.11075 0.27019 1.57399
HEad  -40.498 25.5384 4.305
LeftShoulder1  -1.94126e-019 -3.10601e-018 -2.51263e-017
LeftArm  -9.62892 23.4461 -78.61
LeftForeArm  24.5088 -42.0743 -8.47221
LeftHand  -0.312984 -4.68775 3.89938
RightShoulder  -4.96962e-017 0 -2.36833e-017
RightArm  -19.2661 -23.0618 76.2602
RightForeArm  54.1312 17.6554 1.20384
RightHand  -0.319257 0.580963 -6.29512
LeftUpLeg  -6.31712 9.55794 2.81602
LeftLeg  10.6157 18.0897 2.1611
LeftFoot  1.72314 -0.00775107 0.699114
LeftToes  -24.6992 2.32378e-006 -5.43956e-008
